<svg width="236" height="193" viewBox="0 0 236 193" fill="none" xmlns="http://www.w3.org/2000/svg">
<path d="M118.265 161.983C117.63 161.978 116.986 161.974 116.355 161.954L116.375 161.32C117 161.34 117.639 161.348 118.265 161.349C118.895 161.349 119.536 161.339 120.173 161.318L120.193 161.952C119.55 161.973 118.901 161.983 118.265 161.983ZM112.525 161.715C111.257 161.596 109.976 161.434 108.718 161.234L108.819 160.608C110.063 160.805 111.33 160.966 112.585 161.084L112.525 161.715ZM124.023 161.708L123.962 161.077C125.216 160.958 126.483 160.796 127.728 160.596L127.829 161.222C126.571 161.424 125.291 161.588 124.023 161.708ZM104.95 160.51C103.708 160.23 102.458 159.905 101.236 159.545L101.417 158.937C102.626 159.293 103.862 159.614 105.091 159.891L104.95 160.51ZM131.597 160.494L131.455 159.876C132.687 159.596 133.922 159.274 135.128 158.917L135.309 159.526C134.091 159.886 132.841 160.212 131.597 160.494ZM97.5922 158.345C96.3938 157.907 95.1949 157.424 94.0286 156.91L94.2865 156.33C95.4402 156.838 96.6262 157.316 97.8118 157.749L97.5922 158.345ZM138.951 158.32L138.731 157.725C139.909 157.293 141.091 156.815 142.244 156.306L142.503 156.886C141.337 157.401 140.142 157.883 138.951 158.32ZM90.5666 155.25C89.4389 154.664 88.3128 154.032 87.2198 153.372L87.5501 152.829C88.6316 153.483 89.7457 154.107 90.8614 154.687L90.5666 155.25ZM145.955 155.226L145.66 154.664C146.773 154.085 147.885 153.46 148.963 152.807L149.294 153.349C148.204 154.009 147.081 154.64 145.955 155.226ZM84.0015 151.285C82.957 150.559 81.9219 149.789 80.9245 148.998L81.3218 148.501C82.3086 149.285 83.3328 150.046 84.3661 150.764L84.0015 151.285ZM152.507 151.262L152.142 150.742C153.175 150.023 154.198 149.262 155.182 148.479L155.58 148.975C154.585 149.766 153.551 150.536 152.507 151.262ZM78.0007 146.519C77.0566 145.666 76.1283 144.772 75.2421 143.862L75.6994 143.42C76.5762 144.32 77.4947 145.205 78.4291 146.05L78.0007 146.519ZM158.501 146.497L158.072 146.028C159.004 145.185 159.922 144.299 160.8 143.397L161.257 143.838C160.37 144.75 159.442 145.645 158.501 146.497ZM72.6595 141.036C71.8327 140.07 71.0267 139.066 70.2634 138.052L70.7735 137.671C71.5286 138.676 72.3261 139.669 73.1441 140.624L72.6595 141.036ZM163.839 141.009L163.355 140.598C164.172 139.642 164.97 138.648 165.725 137.642L166.235 138.022C165.472 139.038 164.666 140.043 163.839 141.009ZM68.0639 134.922C67.3669 133.859 66.6961 132.762 66.0702 131.66L66.6249 131.348C67.244 132.438 67.9077 133.524 68.5974 134.575L68.0639 134.922ZM168.436 134.888L167.902 134.541C168.592 133.488 169.255 132.4 169.875 131.307L170.43 131.619C169.804 132.724 169.133 133.823 168.436 134.888ZM64.2911 128.278C63.7367 127.136 63.213 125.963 62.7346 124.79L63.3247 124.552C63.7982 125.711 64.3163 126.872 64.8648 128.002L64.2911 128.278ZM172.21 128.228L171.636 127.953C172.184 126.821 172.702 125.657 173.176 124.492L173.767 124.73C173.288 125.908 172.764 127.085 172.21 128.228ZM61.4046 121.205C61.0016 120 60.6335 118.768 60.3102 117.542L60.9265 117.381C61.2461 118.593 61.6104 119.813 62.0091 121.005L61.4046 121.205ZM175.094 121.138L174.489 120.939C174.886 119.748 175.249 118.528 175.568 117.313L176.184 117.474C175.862 118.702 175.495 119.935 175.094 121.138ZM59.4555 113.817C59.2121 112.572 59.0061 111.303 58.8433 110.044L59.4751 109.963C59.6362 111.208 59.84 112.464 60.0808 113.695L59.4555 113.817ZM177.035 113.747L176.409 113.627C176.648 112.396 176.851 111.14 177.01 109.894L177.642 109.974C177.481 111.234 177.276 112.503 177.035 113.747ZM58.4749 106.241C58.3933 104.977 58.3511 103.692 58.3497 102.421L58.9868 102.421C58.9882 103.678 59.0299 104.949 59.1108 106.2L58.4749 106.241ZM178.006 106.17L177.371 106.13C177.45 104.88 177.49 103.609 177.49 102.351L177.49 102.212H178.127L178.127 102.349C178.127 103.622 178.086 104.907 178.006 106.17ZM59.1019 98.6416L58.4661 98.6026C58.5451 97.3357 58.666 96.0558 58.8254 94.7982L59.4575 94.8774C59.2996 96.122 59.18 97.3883 59.1019 98.6416ZM177.362 98.4334C177.279 97.1795 177.155 95.9136 176.993 94.6708L177.624 94.589C177.788 95.8451 177.914 97.1244 177.998 98.3919L177.362 98.4334ZM60.0542 91.1442L59.4286 91.0244C59.6689 89.7793 59.9536 88.5253 60.2743 87.2971L60.8909 87.4566C60.5736 88.6718 60.292 89.9123 60.0542 91.1442ZM176.382 90.9397C176.14 89.7071 175.853 88.4675 175.532 87.2549L176.148 87.0932C176.473 88.3188 176.762 89.5718 177.007 90.8176L176.382 90.9397ZM61.9651 83.8303L61.36 83.6314C61.7599 82.426 62.2051 81.2168 62.6834 80.0374L63.2741 80.275C62.801 81.4417 62.3606 82.6378 61.9651 83.8303ZM174.446 83.6325C174.046 82.4418 173.602 81.2491 173.126 80.0873L173.716 79.8479C174.197 81.0222 174.646 82.2277 175.05 83.4311L174.446 83.6325ZM64.8109 76.8119L64.2367 76.5369C64.7893 75.3929 65.3869 74.2515 66.0127 73.1444L66.568 73.4557C65.9488 74.5509 65.3577 75.6801 64.8109 76.8119ZM171.582 76.6389C171.034 75.5125 170.44 74.3875 169.818 73.2951L170.373 72.9822C171.001 74.0862 171.601 75.2235 172.155 76.3623L171.582 76.6389ZM68.5372 70.2192L68.003 69.8732C68.6979 68.8098 69.4369 67.7543 70.1993 66.7363L70.7102 67.1155C69.9558 68.1228 69.2245 69.167 68.5372 70.2192ZM167.842 70.0699C167.152 69.0215 166.419 67.9806 165.662 66.9761L166.172 66.5954C166.937 67.6108 167.678 68.6628 168.375 69.7224L167.842 70.0699ZM73.0772 64.1571L72.5919 63.7464C73.4171 62.7798 74.2846 61.827 75.1703 60.9146L75.6285 61.3554C74.7522 62.2582 73.8939 63.2009 73.0772 64.1571ZM163.288 64.0264C162.469 63.0728 161.608 62.1329 160.729 61.2327L161.186 60.7907C162.074 61.7003 162.944 62.6503 163.772 63.6141L163.288 64.0264ZM78.3532 58.7214L77.9242 58.2524C78.867 57.3973 79.8488 56.5623 80.8421 55.7709L81.2403 56.2662C80.2574 57.0493 79.286 57.8754 78.3532 58.7214ZM157.996 58.6063C157.062 57.7642 156.088 56.9406 155.1 56.1584L155.497 55.6619C156.495 56.4525 157.48 57.2849 158.424 58.1361L157.996 58.6063ZM84.2779 53.9996L83.9124 53.4801C84.9549 52.7526 86.035 52.0493 87.1227 51.3896L87.4542 51.9313C86.3781 52.5841 85.3093 53.28 84.2779 53.9996ZM152.054 53.8986C151.016 53.1798 149.944 52.4862 148.867 51.8372L149.197 51.2945C150.286 51.9504 151.37 52.6514 152.418 53.3779L152.054 53.8986ZM90.7555 50.0703L90.4596 49.5084C91.5859 48.9202 92.7469 48.3604 93.9099 47.8449L94.1691 48.4244C93.0183 48.9344 91.8699 49.4883 90.7555 50.0703ZM145.554 49.9833C144.435 49.4034 143.282 48.8522 142.127 48.3448L142.384 47.7643C143.551 48.2771 144.717 48.8344 145.848 49.4204L145.554 49.9833ZM97.6805 47.0014L97.4593 46.4063C98.6539 45.9663 99.8788 45.5593 101.1 45.1967L101.282 45.8048C100.074 46.1633 98.8622 46.566 97.6805 47.0014ZM138.6 46.9294C137.416 46.498 136.202 46.0997 134.994 45.7456L135.174 45.1369C136.395 45.4949 137.622 45.8976 138.819 46.3337L138.6 46.9294ZM104.954 44.8422L104.812 44.2239C106.051 43.9411 107.318 43.6947 108.578 43.4911L108.68 44.1174C107.434 44.3187 106.18 44.5625 104.954 44.8422ZM131.318 44.7961C130.09 44.5204 128.835 44.2809 127.589 44.0842L127.689 43.4576C128.949 43.6565 130.217 43.8985 131.458 44.1772L131.318 44.7961ZM112.446 43.6318L112.384 43.0006C113.649 42.8784 114.937 42.7949 116.213 42.7526L116.234 43.3867C114.972 43.4285 113.697 43.511 112.446 43.6318ZM123.822 43.6122C122.569 43.4956 121.294 43.4175 120.033 43.3802L120.052 42.7461C121.326 42.7839 122.615 42.8627 123.882 42.9806L123.822 43.6122Z" fill="#D0CDE1"/>
<path d="M116.008 59.2133C124.277 59.2133 130.981 52.5388 130.981 44.3053C130.981 36.0719 124.277 29.3974 116.008 29.3974C107.74 29.3974 101.036 36.0719 101.036 44.3053C101.036 52.5388 107.74 59.2133 116.008 59.2133Z" fill="#F36246"/>
<path d="M173.986 99.8138C182.255 99.8138 188.958 93.1393 188.958 84.9058C188.958 76.6724 182.255 69.9978 173.986 69.9978C165.717 69.9978 159.013 76.6724 159.013 84.9058C159.013 93.1393 165.717 99.8138 173.986 99.8138Z" fill="#F36246"/>
<path d="M155.828 161.983C164.097 161.983 170.8 155.309 170.8 147.075C170.8 138.842 164.097 132.167 155.828 132.167C147.559 132.167 140.856 138.842 140.856 147.075C140.856 155.309 147.559 161.983 155.828 161.983Z" fill="#F36246"/>
<path d="M83.8344 164.521C92.1033 164.521 98.8066 157.846 98.8066 149.613C98.8066 141.379 92.1033 134.705 83.8344 134.705C75.5655 134.705 68.8622 141.379 68.8622 149.613C68.8622 157.846 75.5655 164.521 83.8344 164.521Z" fill="#F36246"/>
<path d="M62.1721 99.8138C70.4411 99.8138 77.1443 93.1393 77.1443 84.9058C77.1443 76.6724 70.4411 69.9978 62.1721 69.9978C53.9032 69.9978 47.2 76.6724 47.2 84.9058C47.2 93.1393 53.9032 99.8138 62.1721 99.8138Z" fill="#F36246"/>
<path d="M122.425 43.1167H117.202C116.727 43.1167 116.272 42.9289 115.936 42.5945C115.6 42.2602 115.412 41.8067 115.412 41.3338V36.1339C115.412 36.1143 115.408 36.095 115.4 36.077C115.393 36.059 115.382 36.0426 115.368 36.0288C115.354 36.015 115.338 36.0041 115.32 35.9966C115.302 35.9891 115.282 35.9853 115.263 35.9853H111.831C111.198 35.9853 110.59 36.2357 110.143 36.6815C109.695 37.1273 109.443 37.732 109.443 38.3624V50.2481C109.443 50.8785 109.695 51.4832 110.143 51.929C110.59 52.3748 111.198 52.6252 111.831 52.6252H120.187C120.82 52.6252 121.427 52.3748 121.875 51.929C122.322 51.4832 122.574 50.8785 122.574 50.2481V43.2653C122.574 43.2457 122.57 43.2264 122.563 43.2084C122.555 43.1904 122.544 43.174 122.53 43.1602C122.516 43.1464 122.5 43.1355 122.482 43.128C122.464 43.1205 122.444 43.1167 122.425 43.1167ZM118.993 49.0595H113.024C112.866 49.0595 112.714 48.9969 112.602 48.8855C112.49 48.774 112.428 48.6228 112.428 48.4652C112.428 48.3076 112.49 48.1565 112.602 48.045C112.714 47.9336 112.866 47.8709 113.024 47.8709H118.993C119.151 47.8709 119.303 47.9336 119.415 48.045C119.527 48.1565 119.59 48.3076 119.59 48.4652C119.59 48.6228 119.527 48.774 119.415 48.8855C119.303 48.9969 119.151 49.0595 118.993 49.0595ZM118.993 46.0881H113.024C112.866 46.0881 112.714 46.0255 112.602 45.914C112.49 45.8026 112.428 45.6514 112.428 45.4938C112.428 45.3362 112.49 45.185 112.602 45.0736C112.714 44.9621 112.866 44.8995 113.024 44.8995H118.993C119.151 44.8995 119.303 44.9621 119.415 45.0736C119.527 45.185 119.59 45.3362 119.59 45.4938C119.59 45.6514 119.527 45.8026 119.415 45.914C119.303 46.0255 119.151 46.0881 118.993 46.0881Z" fill="white"/>
<path d="M122.097 41.8015L116.733 36.46C116.722 36.4497 116.709 36.4426 116.694 36.4398C116.68 36.437 116.665 36.4384 116.651 36.444C116.638 36.4496 116.626 36.4591 116.618 36.4712C116.61 36.4834 116.605 36.4977 116.605 36.5124V41.3338C116.605 41.4915 116.668 41.6426 116.78 41.7541C116.892 41.8655 117.044 41.9281 117.202 41.9281H122.044C122.059 41.9281 122.074 41.9237 122.086 41.9155C122.098 41.9073 122.107 41.8958 122.113 41.8822C122.119 41.8687 122.12 41.8538 122.117 41.8394C122.114 41.8251 122.107 41.8119 122.097 41.8015Z" fill="white"/>
<path d="M157.993 144.138C157.81 144.138 157.632 144.202 157.49 144.318C157.348 144.434 157.251 144.595 157.215 144.775C157.18 144.954 157.207 145.14 157.294 145.301C157.381 145.462 157.521 145.589 157.69 145.659C157.86 145.728 158.049 145.738 158.224 145.684C158.4 145.631 158.552 145.519 158.654 145.367C158.756 145.215 158.801 145.033 158.783 144.851C158.765 144.669 158.684 144.499 158.554 144.37C158.481 144.296 158.393 144.238 158.297 144.198C158.201 144.159 158.097 144.138 157.993 144.138Z" fill="white"/>
<path d="M162.411 140.979V140.977C162.386 140.867 162.331 140.766 162.251 140.686C162.172 140.606 162.071 140.55 161.961 140.524C161.076 140.308 159.682 140.538 158.137 141.154C156.652 141.728 155.293 142.585 154.137 143.676C153.821 143.989 153.527 144.324 153.258 144.678C152.664 144.637 152.068 144.732 151.517 144.956C149.8 145.708 149.31 147.633 149.18 148.424C149.161 148.536 149.168 148.651 149.201 148.76C149.234 148.869 149.292 148.969 149.37 149.052C149.449 149.135 149.545 149.199 149.652 149.239C149.759 149.279 149.874 149.294 149.988 149.282H149.992L151.904 149.074C151.906 149.099 151.909 149.121 151.911 149.141C151.936 149.373 152.039 149.59 152.205 149.755L153.139 150.684C153.304 150.85 153.521 150.953 153.754 150.978L153.818 150.984L153.61 152.886V152.89C153.6 152.987 153.609 153.084 153.637 153.177C153.665 153.271 153.711 153.357 153.772 153.433C153.834 153.508 153.91 153.571 153.996 153.617C154.082 153.663 154.176 153.692 154.273 153.702C154.296 153.704 154.319 153.706 154.342 153.706C154.383 153.706 154.424 153.703 154.465 153.696C155.263 153.568 157.196 153.086 157.949 151.368C158.172 150.82 158.268 150.23 158.23 149.641C158.587 149.373 158.924 149.081 159.239 148.766C160.334 147.625 161.196 146.282 161.775 144.813C162.39 143.293 162.622 141.895 162.411 140.979ZM159.228 146.156C158.984 146.399 158.673 146.565 158.334 146.632C157.995 146.7 157.644 146.665 157.325 146.534C157.005 146.402 156.732 146.18 156.54 145.894C156.348 145.608 156.245 145.271 156.245 144.927C156.245 144.583 156.347 144.247 156.539 143.961C156.731 143.674 157.004 143.451 157.323 143.32C157.642 143.188 157.993 143.153 158.332 143.22C158.671 143.287 158.983 143.452 159.227 143.696L159.228 143.697C159.556 144.018 159.742 144.456 159.745 144.913C159.749 145.371 159.57 145.811 159.247 146.137L159.228 146.156Z" fill="white"/>
<path d="M153.031 150.937C152.916 150.922 152.8 150.95 152.704 151.016C152.514 151.145 152.323 151.273 152.131 151.397C152.047 151.451 151.948 151.475 151.849 151.466C151.75 151.456 151.657 151.414 151.585 151.346C151.513 151.278 151.466 151.187 151.452 151.089C151.437 150.991 151.457 150.891 151.506 150.805L151.868 150.184C151.919 150.109 151.948 150.02 151.95 149.929C151.953 149.838 151.929 149.748 151.881 149.67C151.834 149.592 151.765 149.53 151.682 149.49C151.6 149.451 151.508 149.435 151.417 149.446C151.016 149.497 150.643 149.679 150.358 149.963C150.249 150.072 149.918 150.402 149.74 151.658C149.689 152.019 149.657 152.382 149.644 152.747C149.643 152.809 149.653 152.871 149.676 152.929C149.698 152.987 149.732 153.04 149.775 153.085C149.818 153.13 149.869 153.166 149.926 153.192C149.984 153.217 150.045 153.231 150.108 153.232C150.112 153.232 150.116 153.232 150.12 153.232H150.132C150.498 153.22 150.863 153.188 151.226 153.138C152.488 152.96 152.82 152.63 152.928 152.522C153.215 152.237 153.398 151.865 153.445 151.464C153.461 151.339 153.426 151.214 153.348 151.115C153.27 151.016 153.156 150.952 153.031 150.937Z" fill="white"/>
<path d="M78.6812 157.714H77.5964C77.3806 157.714 77.1737 157.629 77.0211 157.477C76.8686 157.325 76.7828 157.119 76.7828 156.904V152.043C76.7828 151.828 76.8686 151.622 77.0211 151.47C77.1737 151.318 77.3806 151.233 77.5964 151.233H78.6812C78.897 151.233 79.1039 151.318 79.2565 151.47C79.4091 151.622 79.4948 151.828 79.4948 152.043V156.904C79.4948 157.119 79.4091 157.325 79.2565 157.477C79.1039 157.629 78.897 157.714 78.6812 157.714Z" fill="white"/>
<path d="M86.2748 157.714H85.1901C84.9743 157.714 84.7673 157.628 84.6148 157.476C84.4622 157.325 84.3765 157.118 84.3765 156.904V148.803C84.3765 148.588 84.4622 148.382 84.6148 148.23C84.7673 148.078 84.9743 147.992 85.1901 147.992H86.2748C86.4906 147.992 86.6976 148.078 86.8501 148.23C87.0027 148.382 87.0884 148.588 87.0884 148.803V156.904C87.0884 157.118 87.0027 157.325 86.8501 157.476C86.6976 157.628 86.4906 157.714 86.2748 157.714Z" fill="white"/>
<path d="M90.0713 157.714H88.9866C88.7708 157.714 88.5638 157.628 88.4113 157.476C88.2587 157.325 88.173 157.118 88.173 156.904V145.022C88.173 144.807 88.2587 144.601 88.4113 144.449C88.5638 144.297 88.7708 144.212 88.9866 144.212H90.0713C90.2871 144.212 90.4941 144.297 90.6467 144.449C90.7992 144.601 90.8849 144.807 90.8849 145.022V156.904C90.8849 157.118 90.7992 157.325 90.6467 157.476C90.4941 157.628 90.2871 157.714 90.0713 157.714Z" fill="white"/>
<path d="M82.4783 157.714H81.3935C81.1778 157.714 80.9708 157.629 80.8183 157.477C80.6657 157.325 80.58 157.119 80.58 156.904V142.322C80.58 142.107 80.6657 141.901 80.8183 141.749C80.9708 141.597 81.1778 141.512 81.3935 141.512H82.4783C82.6941 141.512 82.9011 141.597 83.0536 141.749C83.2062 141.901 83.2919 142.107 83.2919 142.322V156.904C83.2919 157.01 83.2709 157.116 83.23 157.214C83.1891 157.312 83.1292 157.401 83.0536 157.477C82.9781 157.552 82.8884 157.612 82.7897 157.652C82.691 157.693 82.5852 157.714 82.4783 157.714Z" fill="white"/>
<path d="M174.703 84.5155L173.928 83.7435C173.75 83.5667 173.51 83.4671 173.259 83.4664C173.008 83.4657 172.766 83.5641 172.588 83.74L167.2 88.6914C167.002 88.8658 166.881 89.1105 166.863 89.373C166.857 89.5033 166.878 89.6334 166.925 89.7551C166.972 89.8768 167.044 89.9876 167.136 90.0805L168.294 91.2459L168.296 91.248C168.475 91.4255 168.717 91.5256 168.969 91.5264H169.004C169.135 91.5191 169.263 91.4861 169.381 91.4295C169.499 91.3728 169.605 91.2936 169.692 91.1962L174.7 85.8555C174.879 85.6789 174.98 85.4388 174.981 85.188C174.982 84.9371 174.883 84.6962 174.705 84.518L174.703 84.5155Z" fill="white"/>
<path d="M180.932 82.9551L180.922 82.9459L179.905 81.9434C179.846 81.8843 179.775 81.8375 179.697 81.8057C179.619 81.774 179.536 81.7579 179.452 81.7584C179.315 81.7585 179.182 81.8013 179.072 81.8808C179.072 81.868 179.074 81.8556 179.075 81.8447C179.116 81.5858 179.061 81.3209 178.92 81.0993C178.696 80.7985 178.45 80.5146 178.184 80.2499L178.182 80.2475C177.438 79.5371 176.564 78.9758 175.608 78.5942C175.108 78.3899 174.572 78.2849 174.032 78.2853C173.333 78.279 172.653 78.5161 172.11 78.9556C171.956 79.1025 171.815 79.263 171.689 79.435C171.629 79.5175 171.598 79.617 171.599 79.7188C171.6 79.8206 171.635 79.9193 171.697 80.0001C171.759 80.0809 171.846 80.1396 171.944 80.1674C172.042 80.1952 172.147 80.1906 172.243 80.1544C172.326 80.1234 172.411 80.0975 172.497 80.0767C172.677 80.0388 172.862 80.0273 173.045 80.0427C173.425 80.0822 173.789 80.2151 174.105 80.4296C174.281 80.5779 174.422 80.7643 174.516 80.9746C174.61 81.185 174.654 81.4139 174.647 81.644C174.515 82.0178 174.313 82.3635 174.053 82.6631C173.983 82.7542 173.95 82.8673 173.957 82.9815C173.965 83.0956 174.015 83.203 174.096 83.2837L175.117 84.3008C175.203 84.3864 175.319 84.4361 175.44 84.4395C175.562 84.4429 175.68 84.3998 175.77 84.3191C176.059 84.0622 176.499 83.6751 176.653 83.5802C176.784 83.4926 176.933 83.4342 177.089 83.4088C177.205 83.3974 177.322 83.422 177.424 83.4791C177.425 83.4842 177.424 83.4893 177.423 83.4941C177.421 83.499 177.418 83.5034 177.415 83.5072L177.361 83.5583L177.352 83.5666C177.232 83.6856 177.164 83.8473 177.164 84.016C177.164 84.1847 177.231 84.3466 177.35 84.4661L177.354 84.4692L178.371 85.4715C178.43 85.5305 178.501 85.5773 178.579 85.609C178.657 85.6407 178.74 85.6567 178.824 85.6562C178.993 85.6564 179.155 85.5906 179.276 85.4729L180.923 83.8527C180.929 83.8471 180.935 83.8412 180.94 83.8352C181.05 83.7146 181.111 83.5568 181.109 83.3936C181.108 83.2303 181.044 83.0736 180.932 82.9551Z" fill="white"/>
<path d="M64.5494 84.0183C64.4318 84.0183 64.3169 83.9836 64.2192 83.9186C64.1215 83.8536 64.0453 83.7612 64.0003 83.653C63.9553 83.5449 63.9436 83.4259 63.9665 83.3111C63.9894 83.1964 64.046 83.0909 64.1291 83.0082L65.4918 81.6513L64.1291 80.2945C64.0177 80.1835 63.9551 80.033 63.9551 79.8761C63.9551 79.7191 64.0177 79.5686 64.1291 79.4577C64.2406 79.3467 64.3917 79.2843 64.5494 79.2843C64.707 79.2843 64.8581 79.3467 64.9696 79.4577L66.7525 81.2329C66.8077 81.2878 66.8514 81.3531 66.8813 81.4249C66.9112 81.4967 66.9266 81.5736 66.9266 81.6513C66.9266 81.729 66.9112 81.806 66.8813 81.8778C66.8514 81.9496 66.8077 82.0148 66.7525 82.0698L64.9696 83.845C64.9145 83.9 64.849 83.9437 64.7768 83.9734C64.7047 84.0032 64.6274 84.0184 64.5494 84.0183Z" fill="white"/>
<path d="M55.0403 85.7936C54.9623 85.7936 54.885 85.7783 54.8129 85.7485C54.7408 85.7188 54.6753 85.6752 54.6201 85.6203C54.5649 85.5653 54.5211 85.5001 54.4913 85.4283C54.4614 85.3565 54.446 85.2795 54.446 85.2018V84.6101C54.4507 83.6702 54.8276 82.77 55.495 82.1052C56.1623 81.4405 57.0661 81.0647 58.0101 81.0596H65.7377C65.8953 81.0596 66.0465 81.1219 66.1579 81.2329C66.2694 81.3439 66.332 81.4944 66.332 81.6513C66.332 81.8083 66.2694 81.9588 66.1579 82.0698C66.0465 82.1807 65.8953 82.2431 65.7377 82.2431H58.0118C57.3822 82.2468 56.7795 82.4976 56.3344 82.9411C55.8893 83.3846 55.6379 83.9849 55.6346 84.6119V85.2018C55.6346 85.2795 55.6193 85.3565 55.5894 85.4283C55.5595 85.5001 55.5158 85.5653 55.4606 85.6203C55.4054 85.6752 55.3399 85.7188 55.2678 85.7485C55.1957 85.7783 55.1184 85.7936 55.0403 85.7936Z" fill="white"/>
<path d="M59.795 90.5276C59.717 90.5277 59.6397 90.5124 59.5676 90.4827C59.4954 90.4529 59.4299 90.4093 59.3748 90.3542L57.5919 88.579C57.5367 88.524 57.493 88.4588 57.4631 88.387C57.4332 88.3152 57.4178 88.2383 57.4178 88.1606C57.4178 88.0829 57.4332 88.0059 57.4631 87.9341C57.493 87.8623 57.5367 87.7971 57.5919 87.7421L59.3748 85.9669C59.4863 85.8561 59.6374 85.7939 59.7949 85.794C59.9525 85.794 60.1035 85.8564 60.2149 85.9673C60.3263 86.0782 60.3889 86.2286 60.3889 86.3854C60.389 86.5423 60.3265 86.6927 60.2153 86.8037L58.8526 88.1606L60.2153 89.5174C60.2984 89.6002 60.355 89.7056 60.3779 89.8204C60.4008 89.9352 60.3891 90.0541 60.3441 90.1623C60.2991 90.2704 60.2229 90.3628 60.1252 90.4278C60.0275 90.4928 59.9126 90.5276 59.795 90.5276Z" fill="white"/>
<path d="M58.6064 88.7521C58.4488 88.7521 58.2976 88.6898 58.1862 88.5788C58.0747 88.4678 58.0121 88.3173 58.0121 88.1604C58.0121 88.0034 58.0747 87.8529 58.1862 87.7419C58.2976 87.631 58.4488 87.5686 58.6064 87.5686H66.3322C66.9619 87.5649 67.5646 87.3141 68.0097 86.8706C68.4547 86.4271 68.7062 85.8268 68.7094 85.1998V84.6099C68.7094 84.4529 68.772 84.3024 68.8835 84.1914C68.9949 84.0805 69.1461 84.0181 69.3037 84.0181C69.4613 84.0181 69.6125 84.0805 69.724 84.1914C69.8354 84.3024 69.898 84.4529 69.898 84.6099V85.2016C69.8934 86.1415 69.5164 87.0417 68.8491 87.7064C68.1818 88.3712 67.278 88.747 66.334 88.7521L58.6064 88.7521Z" fill="white"/>
</svg>
